<svg width="64" height="66" viewBox="0 0 64 66" fill="none" xmlns="http://www.w3.org/2000/svg">
<ellipse cx="32" cy="32.6667" rx="32" ry="32.6667" fill="white"/>
<path d="M19.9367 30.8651H19.1205C16.3591 30.8651 14.1205 33.1036 14.1205 35.8651V46.8572V46.8572C14.1205 48.4883 16.0544 49.3465 17.2638 48.2523L17.9488 47.6326C18.5004 47.1336 19.2177 46.8572 19.9615 46.8572H29.8003C32.5617 46.8572 34.8003 44.6187 34.8003 41.8572V41.0423H23.9367C21.7276 41.0423 19.9367 39.2515 19.9367 37.0423V30.8651Z" stroke="#717171" stroke-width="2"/>
<path d="M20.2904 22.6709C20.2904 20.4618 22.0813 18.6709 24.2904 18.6709H44.8792C47.0883 18.6709 48.8792 20.4618 48.8792 22.6709V41.5672V43.3668C48.8792 44.2364 47.8459 44.6916 47.2042 44.1047L44.4836 41.6159C43.7463 40.9413 42.7831 40.5672 41.7837 40.5672H24.2904C22.0813 40.5672 20.2904 38.7764 20.2904 36.5672V22.6709Z" stroke="#717171" stroke-width="2"/>
<path fill-rule="evenodd" clip-rule="evenodd" d="M28.5533 30.865C29.3861 30.865 30.0612 30.1759 30.0612 29.3257C30.0612 28.4756 29.3861 27.7864 28.5533 27.7864C27.7205 27.7864 27.0454 28.4756 27.0454 29.3257C27.0454 30.1759 27.7205 30.865 28.5533 30.865Z" fill="#717171"/>
<path fill-rule="evenodd" clip-rule="evenodd" d="M34.154 30.865C34.9868 30.865 35.6619 30.1759 35.6619 29.3257C35.6619 28.4756 34.9868 27.7864 34.154 27.7864C33.3212 27.7864 32.6461 28.4756 32.6461 29.3257C32.6461 30.1759 33.3212 30.865 34.154 30.865Z" fill="#717171"/>
<path fill-rule="evenodd" clip-rule="evenodd" d="M39.7547 30.865C40.5875 30.865 41.2626 30.1759 41.2626 29.3257C41.2626 28.4756 40.5875 27.7864 39.7547 27.7864C38.9219 27.7864 38.2468 28.4756 38.2468 29.3257C38.2468 30.1759 38.9219 30.865 39.7547 30.865Z" fill="#717171"/>
</svg>
